ISO-10303-21;
HEADER;
/* Generated by software containing ST-Developer
 * from STEP Tools, Inc. (www.steptools.com) 
 */

FILE_DESCRIPTION(
/* description */ (''),
/* implementation_level */ '2;1');

FILE_NAME(
/* name */ 'MasterSections.step',
/* time_stamp */ '2026-08-27T20:55:24-04:00',
/* author */ (''),
/* organization */ (''),
/* preprocessor_version */ 'ST-DEVELOPER v20.1',
/* originating_system */ 'Autodesk Translation Framework v15.8.0.0',
/* authorisation */ '');

FILE_SCHEMA (('AUTOMOTIVE_DESIGN { 1 0 10303 214 3 1 1 }'));
ENDSEC;

DATA;
#10=MECHANICAL_DESIGN_GEOMETRIC_PRESENTATION_REPRESENTATION('',(#13),#791);
#11=SHAPE_REPRESENTATION_RELATIONSHIP('SRR','None',#798,#12);
#12=ADVANCED_BREP_SHAPE_REPRESENTATION('',(#14),#790);
#13=STYLED_ITEM('',(#807),#14);
#14=MANIFOLD_SOLID_BREP('Body10',#104);
#15=(
BOUNDED_CURVE()
B_SPLINE_CURVE(5,(#597,#598,#599,#600,#601,#602,#603,#604,#605,#606,#607,
#608,#609,#610,#611,#612,#613,#614,#615,#616,#617,#618,#619,#620,#621,#622),
 .UNSPECIFIED.,.F.,.F.)
B_SPLINE_CURVE_WITH_KNOTS((6,1,1,1,1,1,1,1,1,1,1,1,1,1,1,1,1,1,1,1,1,6),
(0.175442078150026,0.176470588235294,0.182352941176471,0.188235294117647,
0.194117647058824,0.2,0.205882352941177,0.211764705882353,0.21764705882353,
0.223529411764706,0.229411764705883,0.235294117647059,0.241176470588235,
0.247058823529412,0.252941176470588,0.258823529411765,0.264705882352941,
0.270588235294118,0.276470588235294,0.282352941176471,0.288235294117647,
0.293990586571201),.UNSPECIFIED.)
CURVE()
GEOMETRIC_REPRESENTATION_ITEM()
RATIONAL_B_SPLINE_CURVE((1.,1.,1.,1.,1.,1.,1.,1.,1.,1.,1.,1.,1.,1.,1.,1.,
1.,1.,1.,1.,1.,1.,1.,1.,1.,1.))
REPRESENTATION_ITEM('')
);
#16=(
BOUNDED_CURVE()
B_SPLINE_CURVE(5,(#759,#760,#761,#762,#763,#764,#765,#766,#767,#768,#769,
#770,#771,#772,#773,#774,#775,#776,#777,#778,#779,#780,#781,#782,#783,#784),
 .UNSPECIFIED.,.F.,.F.)
B_SPLINE_CURVE_WITH_KNOTS((6,1,1,1,1,1,1,1,1,1,1,1,1,1,1,1,1,1,1,1,1,6),
(0.706994762178334,0.711764705882352,0.717647058823528,0.723529411764704,
0.729411764705881,0.735294117647057,0.741176470588234,0.74705882352941,
0.752941176470587,0.758823529411763,0.76470588235294,0.770588235294116,
0.776470588235292,0.782352941176469,0.788235294117645,0.794117647058822,
0.799999999999998,0.805882352941175,0.811764705882351,0.817647058823528,
0.823529411764704,0.825499699248015),.UNSPECIFIED.)
CURVE()
GEOMETRIC_REPRESENTATION_ITEM()
RATIONAL_B_SPLINE_CURVE((1.,1.,1.,1.,1.,1.,1.,1.,1.,1.,1.,1.,1.,1.,1.,1.,
1.,1.,1.,1.,1.,1.,1.,1.,1.,1.))
REPRESENTATION_ITEM('')
);
#17=B_SPLINE_SURFACE_WITH_KNOTS('',3,3,((#240,#241,#242,#243),(#244,#245,
#246,#247),(#248,#249,#250,#251),(#252,#253,#254,#255),(#256,#257,#258,
#259),(#260,#261,#262,#263),(#264,#265,#266,#267),(#268,#269,#270,#271),
(#272,#273,#274,#275),(#276,#277,#278,#279),(#280,#281,#282,#283),(#284,
#285,#286,#287),(#288,#289,#290,#291),(#292,#293,#294,#295),(#296,#297,
#298,#299),(#300,#301,#302,#303),(#304,#305,#306,#307),(#308,#309,#310,
#311),(#312,#313,#314,#315),(#316,#317,#318,#319),(#320,#321,#322,#323),
(#324,#325,#326,#327),(#328,#329,#330,#331),(#332,#333,#334,#335),(#336,
#337,#338,#339),(#340,#341,#342,#343),(#344,#345,#346,#347),(#348,#349,
#350,#351),(#352,#353,#354,#355),(#356,#357,#358,#359),(#360,#361,#362,
#363),(#364,#365,#366,#367),(#368,#369,#370,#371),(#372,#373,#374,#375),
(#376,#377,#378,#379),(#380,#381,#382,#383),(#384,#385,#386,#387),(#388,
#389,#390,#391),(#392,#393,#394,#395),(#396,#397,#398,#399),(#400,#401,
#402,#403),(#404,#405,#406,#407),(#408,#409,#410,#411),(#412,#413,#414,
#415),(#416,#417,#418,#419),(#420,#421,#422,#423),(#424,#425,#426,#427),
(#428,#429,#430,#431),(#432,#433,#434,#435),(#436,#437,#438,#439),(#440,
#441,#442,#443),(#444,#445,#446,#447),(#448,#449,#450,#451),(#452,#453,
#454,#455),(#456,#457,#458,#459),(#460,#461,#462,#463),(#464,#465,#466,
#467),(#468,#469,#470,#471),(#472,#473,#474,#475),(#476,#477,#478,#479),
(#480,#481,#482,#483),(#484,#485,#486,#487),(#488,#489,#490,#491),(#492,
#493,#494,#495),(#496,#497,#498,#499),(#500,#501,#502,#503),(#504,#505,
#506,#507),(#508,#509,#510,#511),(#512,#513,#514,#515),(#516,#517,#518,
#519),(#520,#521,#522,#523),(#524,#525,#526,#527),(#528,#529,#530,#531),
(#532,#533,#534,#535),(#536,#537,#538,#539),(#540,#541,#542,#543),(#544,
#545,#546,#547),(#548,#549,#550,#551),(#552,#553,#554,#555),(#556,#557,
#558,#559),(#560,#561,#562,#563),(#564,#565,#566,#567),(#568,#569,#570,
#571),(#572,#573,#574,#575),(#576,#577,#578,#579),(#580,#581,#582,#583),
(#584,#585,#586,#587),(#588,#589,#590,#591),(#592,#593,#594,#595)),
 .UNSPECIFIED.,.F.,.F.,.F.,(4,1,1,1,1,1,1,1,1,1,1,1,1,1,1,1,1,1,1,1,1,1,
1,1,1,1,1,1,1,1,1,1,1,1,1,1,1,1,1,1,1,1,1,1,1,1,1,1,1,1,1,1,1,1,1,1,1,1,
1,1,1,1,1,1,1,1,1,1,1,1,1,1,1,1,1,1,1,1,1,1,1,1,1,1,1,1,4),(4,4),(0.175442078150026,
0.198658421760669,0.21026659356599,0.221874765371311,0.233482937176632,
0.245091108981954,0.256699280787275,0.262503366689935,0.268307452592596,
0.279915624397917,0.291523796203238,0.297327882105899,0.30313196800856,
0.314740139813881,0.326348311619202,0.337956483424523,0.349564655229845,
0.361172827035166,0.368911608238713,0.376650389442261,0.384389170645808,
0.392127951849356,0.399866733052903,0.407605514256451,0.415344295459998,
0.423083076663546,0.426952467265319,0.430821857867093,0.438560639070641,
0.446299420274188,0.454038201477736,0.461776982681283,0.465646373283057,
0.469515763884831,0.477254545088378,0.484993326291926,0.492732107495473,
0.500470888699021,0.502405583999907,0.503372931650351,0.503856605475573,
0.504340279300794,0.508209669902568,0.512079060504342,0.514013755805229,
0.515948451106116,0.523687232309663,0.531426013513211,0.539164794716758,
0.543034185318532,0.546903575920305,0.552707661822966,0.558511747725627,
0.564315833628287,0.570119919530948,0.581728091336269,0.58753217723893,
0.59333626314159,0.604944434946912,0.616552606752233,0.628160778557554,
0.633964864460215,0.639768950362875,0.651377122168197,0.662985293973518,
0.674593465778839,0.68620163758416,0.697809809389481,0.709417981194803,
0.715222067097463,0.721026153000124,0.726830238902785,0.732634324805445,
0.744242496610766,0.755850668416088,0.767458840221409,0.770360883172739,
0.77326292612407,0.7761649690754,0.777615990551065,0.778341501288897,0.778704256657814,
0.77906701202673,0.790675183832051,0.802283355637373,0.813891527442694,
0.825499699248015),(0.,0.750116424357263),.UNSPECIFIED.);
#18=FACE_BOUND('',#36,.T.);
#19=FACE_BOUND('',#39,.T.);
#20=B_SPLINE_CURVE_WITH_KNOTS('',3,(#153,#154,#155,#156,#157,#158),
 .UNSPECIFIED.,.F.,.F.,(4,2,4),(-7.49678608950965,-2.75471447730808,0.),
 .UNSPECIFIED.);
#21=B_SPLINE_CURVE_WITH_KNOTS('',3,(#160,#161,#162,#163,#164,#165,#166,
#167,#168,#169,#170,#171,#172,#173,#174,#175,#176,#177,#178,#179,#180,#181,
#182,#183,#184,#185,#186,#187,#188,#189,#190,#191,#192,#193,#194,#195,#196,
#197,#198,#199,#200,#201,#202,#203,#204,#205,#206,#207,#208,#209,#210,#211,
#212,#213,#214,#215,#216,#217,#218,#219,#220,#221,#222,#223,#224,#225,#226),
 .UNSPECIFIED.,.F.,.F.,(4,3,3,3,3,3,3,3,3,3,3,3,3,3,3,3,3,3,3,3,3,3,4),
(-3.07774085395415,-3.0499568267897,-3.03199805035225,-3.0156643323642,
-2.99105550754531,-2.9755978344266,-2.94431584384932,-2.91707651611424,
-2.87149719554996,-2.84533460667132,-2.80966412027988,-2.76359465493291,
-2.71208200080128,-2.65368521158492,-2.61833077064952,-2.58358906747895,
-2.26064043404408,-2.18656002408619,-2.0499000225808,-1.93863329493149,
-1.864518034145,-1.56259730463733,0.),.UNSPECIFIED.);
#22=B_SPLINE_CURVE_WITH_KNOTS('',3,(#227,#228,#229,#230,#231,#232,#233,
#234,#235,#236,#237,#238,#239),.UNSPECIFIED.,.F.,.F.,(4,3,3,3,4),(-1.57850983813999,
-1.18388237860499,-1.01833779231874,-0.876029754398394,0.),
 .UNSPECIFIED.);
#23=B_SPLINE_CURVE_WITH_KNOTS('',3,(#624,#625,#626,#627,#628,#629),
 .UNSPECIFIED.,.F.,.F.,(4,2,4),(-5.02301109964478,-2.51439010049452,0.),
 .UNSPECIFIED.);
#24=B_SPLINE_CURVE_WITH_KNOTS('',3,(#631,#632,#633,#634,#635,#636,#637,
#638,#639,#640,#641,#642,#643,#644,#645,#646,#647,#648,#649,#650,#651,#652,
#653,#654,#655,#656,#657,#658,#659,#660,#661,#662,#663,#664,#665,#666,#667,
#668,#669,#670,#671,#672,#673,#674,#675,#676,#677,#678,#679,#680,#681,#682,
#683,#684,#685,#686,#687,#688,#689,#690,#691,#692,#693,#694,#695,#696,#697,
#698,#699,#700,#701,#702,#703,#704,#705,#706,#707,#708,#709,#710,#711,#712,
#713,#714,#715,#716,#717,#718,#719,#720,#721,#722,#723,#724,#725,#726,#727,
#728,#729,#730,#731,#732,#733,#734,#735,#736,#737,#738,#739,#740,#741,#742,
#743,#744,#745,#746,#747,#748,#749,#750,#751),.UNSPECIFIED.,.F.,.F.,(4,
3,3,3,3,3,3,3,3,3,3,3,3,3,3,3,3,3,3,3,3,3,3,3,3,3,3,3,3,3,3,3,3,3,3,3,3,
3,3,3,4),(-52.3368837310447,-45.7947732646641,-44.3636866001433,-43.7373688244234,
-43.3167956828121,-40.6094959526364,-39.5310910983485,-38.8499535644237,
-36.4218314666472,-35.0786811665211,-34.1309051185155,-31.9977235486083,
-30.7633006994313,-30.0539257712683,-28.175555410564,-27.2800488740554,
-26.6502836510328,-26.2358846136817,-25.7314633294673,-25.3949256939028,
-25.0532387993676,-24.4299013096232,-24.0029968427226,-23.5000017513392,
-23.1555181230636,-22.8719956690451,-22.6622778068111,-21.6394068048624,
-21.0791251024061,-20.5832897550503,-18.7611371264571,-17.7760131515329,
-15.4518127963676,-13.9706384300089,-13.086724679957,-12.238856352538,-10.6172888936787,
-9.45270089672449,-6.13776457504795,-4.41391028159308,0.),.UNSPECIFIED.);
#25=B_SPLINE_CURVE_WITH_KNOTS('',3,(#753,#754,#755,#756,#757,#758),
 .UNSPECIFIED.,.F.,.F.,(4,2,4),(-4.94893351657886,-2.45560090360839,0.),
 .UNSPECIFIED.);
#26=PLANE('',#121);
#27=PLANE('',#122);
#28=PLANE('',#123);
#29=FACE_OUTER_BOUND('',#34,.T.);
#30=FACE_OUTER_BOUND('',#35,.T.);
#31=FACE_OUTER_BOUND('',#37,.T.);
#32=FACE_OUTER_BOUND('',#38,.T.);
#33=FACE_OUTER_BOUND('',#40,.T.);
#34=EDGE_LOOP('',(#72,#73,#74,#75));
#35=EDGE_LOOP('',(#76,#77,#78,#79));
#36=EDGE_LOOP('',(#80));
#37=EDGE_LOOP('',(#81,#82,#83,#84,#85,#86,#87,#88));
#38=EDGE_LOOP('',(#89,#90,#91,#92));
#39=EDGE_LOOP('',(#93));
#40=EDGE_LOOP('',(#94,#95,#96,#97));
#41=LINE('',#146,#44);
#42=LINE('',#151,#45);
#43=LINE('',#786,#46);
#44=VECTOR('',#130,5.1);
#45=VECTOR('',#135,10.);
#46=VECTOR('',#138,10.);
#47=CIRCLE('',#119,5.1);
#48=CIRCLE('',#120,5.1);
#49=VERTEX_POINT('',#143);
#50=VERTEX_POINT('',#145);
#51=VERTEX_POINT('',#149);
#52=VERTEX_POINT('',#150);
#53=VERTEX_POINT('',#152);
#54=VERTEX_POINT('',#159);
#55=VERTEX_POINT('',#596);
#56=VERTEX_POINT('',#623);
#57=VERTEX_POINT('',#630);
#58=VERTEX_POINT('',#752);
#59=EDGE_CURVE('',#49,#49,#47,.T.);
#60=EDGE_CURVE('',#49,#50,#41,.T.);
#61=EDGE_CURVE('',#50,#50,#48,.T.);
#62=EDGE_CURVE('',#51,#52,#42,.T.);
#63=EDGE_CURVE('',#53,#51,#20,.T.);
#64=EDGE_CURVE('',#54,#53,#21,.T.);
#65=EDGE_CURVE('',#52,#54,#22,.T.);
#66=EDGE_CURVE('',#55,#51,#15,.T.);
#67=EDGE_CURVE('',#56,#55,#23,.T.);
#68=EDGE_CURVE('',#57,#56,#24,.T.);
#69=EDGE_CURVE('',#58,#57,#25,.T.);
#70=EDGE_CURVE('',#52,#58,#16,.T.);
#71=EDGE_CURVE('',#58,#55,#43,.T.);
#72=ORIENTED_EDGE('',*,*,#59,.F.);
#73=ORIENTED_EDGE('',*,*,#60,.T.);
#74=ORIENTED_EDGE('',*,*,#61,.F.);
#75=ORIENTED_EDGE('',*,*,#60,.F.);
#76=ORIENTED_EDGE('',*,*,#62,.F.);
#77=ORIENTED_EDGE('',*,*,#63,.F.);
#78=ORIENTED_EDGE('',*,*,#64,.F.);
#79=ORIENTED_EDGE('',*,*,#65,.F.);
#80=ORIENTED_EDGE('',*,*,#59,.T.);
#81=ORIENTED_EDGE('',*,*,#63,.T.);
#82=ORIENTED_EDGE('',*,*,#66,.F.);
#83=ORIENTED_EDGE('',*,*,#67,.F.);
#84=ORIENTED_EDGE('',*,*,#68,.F.);
#85=ORIENTED_EDGE('',*,*,#69,.F.);
#86=ORIENTED_EDGE('',*,*,#70,.F.);
#87=ORIENTED_EDGE('',*,*,#65,.T.);
#88=ORIENTED_EDGE('',*,*,#64,.T.);
#89=ORIENTED_EDGE('',*,*,#71,.F.);
#90=ORIENTED_EDGE('',*,*,#69,.T.);
#91=ORIENTED_EDGE('',*,*,#68,.T.);
#92=ORIENTED_EDGE('',*,*,#67,.T.);
#93=ORIENTED_EDGE('',*,*,#61,.T.);
#94=ORIENTED_EDGE('',*,*,#70,.T.);
#95=ORIENTED_EDGE('',*,*,#71,.T.);
#96=ORIENTED_EDGE('',*,*,#66,.T.);
#97=ORIENTED_EDGE('',*,*,#62,.T.);
#98=CYLINDRICAL_SURFACE('',#118,5.1);
#99=ADVANCED_FACE('',(#29),#98,.F.);
#100=ADVANCED_FACE('',(#30,#18),#26,.F.);
#101=ADVANCED_FACE('',(#31),#17,.F.);
#102=ADVANCED_FACE('',(#32,#19),#27,.T.);
#103=ADVANCED_FACE('',(#33),#28,.T.);
#104=CLOSED_SHELL('',(#99,#100,#101,#102,#103));
#105=DERIVED_UNIT_ELEMENT(#107,1.);
#106=DERIVED_UNIT_ELEMENT(#793,-3.);
#107=(
MASS_UNIT()
NAMED_UNIT(*)
SI_UNIT(.KILO.,.GRAM.)
);
#108=DERIVED_UNIT((#105,#106));
#109=MEASURE_REPRESENTATION_ITEM('density measure',
POSITIVE_RATIO_MEASURE(7850.),#108);
#110=PROPERTY_DEFINITION_REPRESENTATION(#115,#112);
#111=PROPERTY_DEFINITION_REPRESENTATION(#116,#113);
#112=REPRESENTATION('material name',(#114),#790);
#113=REPRESENTATION('density',(#109),#790);
#114=DESCRIPTIVE_REPRESENTATION_ITEM('Steel','Steel');
#115=PROPERTY_DEFINITION('material property','material name',#800);
#116=PROPERTY_DEFINITION('material property','density of part',#800);
#117=AXIS2_PLACEMENT_3D('',#141,#124,#125);
#118=AXIS2_PLACEMENT_3D('',#142,#126,#127);
#119=AXIS2_PLACEMENT_3D('',#144,#128,#129);
#120=AXIS2_PLACEMENT_3D('',#147,#131,#132);
#121=AXIS2_PLACEMENT_3D('',#148,#133,#134);
#122=AXIS2_PLACEMENT_3D('',#785,#136,#137);
#123=AXIS2_PLACEMENT_3D('',#787,#139,#140);
#124=DIRECTION('axis',(0.,0.,1.));
#125=DIRECTION('refdir',(1.,0.,0.));
#126=DIRECTION('center_axis',(0.,1.,0.));
#127=DIRECTION('ref_axis',(1.,0.,0.));
#128=DIRECTION('center_axis',(0.,1.,0.));
#129=DIRECTION('ref_axis',(1.,0.,0.));
#130=DIRECTION('',(0.,1.,0.));
#131=DIRECTION('center_axis',(0.,-1.,0.));
#132=DIRECTION('ref_axis',(1.,0.,0.));
#133=DIRECTION('center_axis',(0.,1.,0.));
#134=DIRECTION('ref_axis',(0.,0.,1.));
#135=DIRECTION('',(0.,0.,-1.));
#136=DIRECTION('center_axis',(0.,1.,0.));
#137=DIRECTION('ref_axis',(0.,0.,1.));
#138=DIRECTION('',(0.,0.,1.));
#139=DIRECTION('center_axis',(1.,0.,0.));
#140=DIRECTION('ref_axis',(0.,0.,-1.));
#141=CARTESIAN_POINT('',(0.,0.,0.));
#142=CARTESIAN_POINT('Origin',(-75.,0.,-3.33066907387547E-15));
#143=CARTESIAN_POINT('',(-80.1,150.,-2.70609920631032E-15));
#144=CARTESIAN_POINT('Origin',(-75.,150.,-3.33066907387547E-15));
#145=CARTESIAN_POINT('',(-80.1,300.,-3.95523894144062E-15));
#146=CARTESIAN_POINT('',(-80.1,0.,-2.70609920631032E-15));
#147=CARTESIAN_POINT('Origin',(-75.,300.,-3.33066907387547E-15));
#148=CARTESIAN_POINT('Origin',(0.,150.,8.52871194528705));
#149=CARTESIAN_POINT('',(0.,150.,38.7499618304836));
#150=CARTESIAN_POINT('',(0.,150.,-21.2499899899981));
#151=CARTESIAN_POINT('',(0.,150.,8.52871194528705));
#152=CARTESIAN_POINT('',(-50.,149.999999999975,28.0671417228095));
#153=CARTESIAN_POINT('Ctrl Pts',(-50.0000000000769,150.,28.0671417227935));
#154=CARTESIAN_POINT('Ctrl Pts',(-46.7094416730863,150.,29.0526867708189));
#155=CARTESIAN_POINT('Ctrl Pts',(-39.7164468153452,150.,31.1084668480531));
#156=CARTESIAN_POINT('Ctrl Pts',(-16.0984400865304,150.,36.1209813944412));
#157=CARTESIAN_POINT('Ctrl Pts',(-9.08250570880054,150.,37.3993243021896));
#158=CARTESIAN_POINT('Ctrl Pts',(1.89657285893872E-16,150.,38.7499618304836));
#159=CARTESIAN_POINT('',(-50.,150.000000000053,-18.2548342460831));
#160=CARTESIAN_POINT('Ctrl Pts',(-49.9999999999996,150.,-18.2548342460796));
#161=CARTESIAN_POINT('Ctrl Pts',(-53.2166952317014,150.,-17.9068978162787));
#162=CARTESIAN_POINT('Ctrl Pts',(-56.4992277380917,150.,-17.4904751947229));
#163=CARTESIAN_POINT('Ctrl Pts',(-59.6967880839595,150.,-17.0248725941986));
#164=CARTESIAN_POINT('Ctrl Pts',(-61.7635968678999,150.,-16.7239207932943));
#165=CARTESIAN_POINT('Ctrl Pts',(-63.7950358525286,150.,-16.4029969883487));
#166=CARTESIAN_POINT('Ctrl Pts',(-65.7497866656388,150.,-16.0633246563762));
#167=CARTESIAN_POINT('Ctrl Pts',(-67.5276554769933,150.,-15.7543886830318));
#168=CARTESIAN_POINT('Ctrl Pts',(-69.3273936448555,150.,-15.4132903929592));
#169=CARTESIAN_POINT('Ctrl Pts',(-71.0617116885353,150.,-15.0457739800752));
#170=CARTESIAN_POINT('Ctrl Pts',(-73.6746825350017,150.,-14.4920637330052));
#171=CARTESIAN_POINT('Ctrl Pts',(-76.1206966430771,150.,-13.906756717889));
#172=CARTESIAN_POINT('Ctrl Pts',(-77.9998350479916,150.,-13.3698092053815));
#173=CARTESIAN_POINT('Ctrl Pts',(-79.1801883327069,150.,-13.0325334845244));
#174=CARTESIAN_POINT('Ctrl Pts',(-80.0984378980243,150.,-12.7251639448136));
#175=CARTESIAN_POINT('Ctrl Pts',(-80.990616791692,150.,-12.3951016097076));
#176=CARTESIAN_POINT('Ctrl Pts',(-82.7961363890237,150.,-11.7271481100174));
#177=CARTESIAN_POINT('Ctrl Pts',(-84.2897197759436,150.,-11.0317726735348));
#178=CARTESIAN_POINT('Ctrl Pts',(-85.442100913062,150.,-10.4586018905143));
#179=CARTESIAN_POINT('Ctrl Pts',(-86.4455564761643,150.,-9.95950363881272));
#180=CARTESIAN_POINT('Ctrl Pts',(-87.1613405989541,150.,-9.56851830964573));
#181=CARTESIAN_POINT('Ctrl Pts',(-87.8173956660137,150.,-9.17824249388329));
#182=CARTESIAN_POINT('Ctrl Pts',(-88.9151666719708,150.,-8.52519750363495));
#183=CARTESIAN_POINT('Ctrl Pts',(-89.726882528263,150.,-7.90643754087623));
#184=CARTESIAN_POINT('Ctrl Pts',(-90.4892966908223,150.,-7.17909925360223));
#185=CARTESIAN_POINT('Ctrl Pts',(-90.9269234049406,150.,-6.76160613720517));
#186=CARTESIAN_POINT('Ctrl Pts',(-91.4096106123092,150.,-6.25303522137435));
#187=CARTESIAN_POINT('Ctrl Pts',(-91.882266538387,150.,-5.63969357754744));
#188=CARTESIAN_POINT('Ctrl Pts',(-92.526693084139,150.,-4.80345390490205));
#189=CARTESIAN_POINT('Ctrl Pts',(-93.1109747134842,150.,-3.79458863318554));
#190=CARTESIAN_POINT('Ctrl Pts',(-93.435950557357,150.,-2.71910242085213));
#191=CARTESIAN_POINT('Ctrl Pts',(-93.855666263322,150.,-1.33008085701575));
#192=CARTESIAN_POINT('Ctrl Pts',(-93.832803941629,150.,0.157200960779894));
#193=CARTESIAN_POINT('Ctrl Pts',(-93.4908459981038,150.,1.56225264567698));
#194=CARTESIAN_POINT('Ctrl Pts',(-93.1084851189464,150.,3.13331367137046));
#195=CARTESIAN_POINT('Ctrl Pts',(-92.3736501356343,150.,4.58338244111279));
#196=CARTESIAN_POINT('Ctrl Pts',(-91.68327071518,150.,5.7116122016399));
#197=CARTESIAN_POINT('Ctrl Pts',(-90.9006292035901,150.,6.99061823663805));
#198=CARTESIAN_POINT('Ctrl Pts',(-90.1338164194556,150.,7.93933687051658));
#199=CARTESIAN_POINT('Ctrl Pts',(-89.504835654878,150.,8.60786482495268));
#200=CARTESIAN_POINT('Ctrl Pts',(-89.1240396626811,150.,9.01260337986198));
#201=CARTESIAN_POINT('Ctrl Pts',(-88.7976652797225,150.,9.31444058861897));
#202=CARTESIAN_POINT('Ctrl Pts',(-88.5618036776417,150.,9.52790650488017));
#203=CARTESIAN_POINT('Ctrl Pts',(-88.3300298593596,150.,9.73767278327597));
#204=CARTESIAN_POINT('Ctrl Pts',(-88.1258250401876,150.,9.91475808705548));
#205=CARTESIAN_POINT('Ctrl Pts',(-87.8930710803483,150.,10.1122303639847));
#206=CARTESIAN_POINT('Ctrl Pts',(-85.7294588680289,150.,11.947874450357));
#207=CARTESIAN_POINT('Ctrl Pts',(-82.7320246510664,150.,14.1612902659166));
#208=CARTESIAN_POINT('Ctrl Pts',(-80.3196943439216,150.,15.6193112392441));
#209=CARTESIAN_POINT('Ctrl Pts',(-79.7663356992157,150.,15.9537631620855));
#210=CARTESIAN_POINT('Ctrl Pts',(-79.2511456778799,150.,16.2504391108228));
#211=CARTESIAN_POINT('Ctrl Pts',(-78.6708444787369,150.,16.5700986086092));
#212=CARTESIAN_POINT('Ctrl Pts',(-77.6003325472623,150.,17.1597911801477));
#213=CARTESIAN_POINT('Ctrl Pts',(-76.4183787172492,150.,17.758046251966));
#214=CARTESIAN_POINT('Ctrl Pts',(-75.374857798707,150.,18.2800658607504));
#215=CARTESIAN_POINT('Ctrl Pts',(-74.5252371594505,150.,18.7050871764125));
#216=CARTESIAN_POINT('Ctrl Pts',(-73.7668445635198,150.,19.0788313243449));
#217=CARTESIAN_POINT('Ctrl Pts',(-73.2273880814957,150.,19.3414525503998));
#218=CARTESIAN_POINT('Ctrl Pts',(-72.868053726178,150.,19.5163857138741));
#219=CARTESIAN_POINT('Ctrl Pts',(-72.6012652888825,150.,19.6448850799441));
#220=CARTESIAN_POINT('Ctrl Pts',(-72.3070769326363,150.,19.7853441006397));
#221=CARTESIAN_POINT('Ctrl Pts',(-71.1086521792458,150.,20.3575270700355));
#222=CARTESIAN_POINT('Ctrl Pts',(-69.9515777546848,150.,20.8849884442398));
#223=CARTESIAN_POINT('Ctrl Pts',(-68.7115094464302,150.,21.4189814449142));
#224=CARTESIAN_POINT('Ctrl Pts',(-62.2935089361491,150.,24.1826738383104));
#225=CARTESIAN_POINT('Ctrl Pts',(-54.9896658517189,150.,26.5727021831432));
#226=CARTESIAN_POINT('Ctrl Pts',(-49.9999999999996,150.,28.0671417228167));
#227=CARTESIAN_POINT('Ctrl Pts',(0.,150.,-21.2499899899981));
#228=CARTESIAN_POINT('Ctrl Pts',(-5.18540269800325,150.,-21.0749942151474));
#229=CARTESIAN_POINT('Ctrl Pts',(-10.2898492945605,150.,-20.8905509198204));
#230=CARTESIAN_POINT('Ctrl Pts',(-15.6305343300484,150.,-20.6437708687803));
#231=CARTESIAN_POINT('Ctrl Pts',(-17.8709296024069,150.,-20.5402476585575));
#232=CARTESIAN_POINT('Ctrl Pts',(-20.1528719308128,150.,-20.4254249384392));
#233=CARTESIAN_POINT('Ctrl Pts',(-22.4998589619819,150.,-20.2973175808526));
#234=CARTESIAN_POINT('Ctrl Pts',(-24.517412824194,150.,-20.187191921595));
#235=CARTESIAN_POINT('Ctrl Pts',(-26.6279765787162,150.,-20.0643832326819));
#236=CARTESIAN_POINT('Ctrl Pts',(-28.5515471698647,150.,-19.9466750051619));
#237=CARTESIAN_POINT('Ctrl Pts',(-40.392797299917,150.,-19.2220784809461));
#238=CARTESIAN_POINT('Ctrl Pts',(-47.0968347184939,150.,-18.568857456366));
#239=CARTESIAN_POINT('Ctrl Pts',(-50.0000000000769,150.,-18.2548342460713));
#240=CARTESIAN_POINT('Ctrl Pts',(0.,300.,31.1499909888391));
#241=CARTESIAN_POINT('Ctrl Pts',(-62.5097020297719,340.006209299054,24.6589855523133));
#242=CARTESIAN_POINT('Ctrl Pts',(-125.019404059544,380.012418598108,18.1679801157876));
#243=CARTESIAN_POINT('Ctrl Pts',(-187.529106089316,420.018627897162,11.6769746792619));
#244=CARTESIAN_POINT('Ctrl Pts',(0.,290.003102334688,32.1739671777746));
#245=CARTESIAN_POINT('Ctrl Pts',(-62.509702029772,332.010397675522,25.4777769248819));
#246=CARTESIAN_POINT('Ctrl Pts',(-125.019404059544,374.013504596113,18.782660035113));
#247=CARTESIAN_POINT('Ctrl Pts',(-187.529106089316,416.020799936946,12.0864697822203));
#248=CARTESIAN_POINT('Ctrl Pts',(0.,275.013374476844,33.5491630283577));
#249=CARTESIAN_POINT('Ctrl Pts',(-62.5097020297718,320.017467180007,26.5782992484293));
#250=CARTESIAN_POINT('Ctrl Pts',(-125.019404059544,365.02221222619,19.6072838173476));
#251=CARTESIAN_POINT('Ctrl Pts',(-187.529106089316,410.026304929353,12.6364200374192));
#252=CARTESIAN_POINT('Ctrl Pts',(0.,255.758696787773,35.1189299638059));
#253=CARTESIAN_POINT('Ctrl Pts',(-62.509702029772,304.614884843548,27.8339186933227));
#254=CARTESIAN_POINT('Ctrl Pts',(-125.019404059544,353.47003916873,20.5491918747964));
#255=CARTESIAN_POINT('Ctrl Pts',(-187.529106089316,402.326227224505,13.2641806043132));
#256=CARTESIAN_POINT('Ctrl Pts',(0.,241.613276049586,36.1882368337841));
#257=CARTESIAN_POINT('Ctrl Pts',(-62.5097020297719,293.298801724972,28.6893887575935));
#258=CARTESIAN_POINT('Ctrl Pts',(-125.019404059544,344.983850751057,21.190651833803));
#259=CARTESIAN_POINT('Ctrl Pts',(-187.529106089316,396.669376426443,13.6918037576124));
#260=CARTESIAN_POINT('Ctrl Pts',(0.,227.417417716703,37.1327413532118));
#261=CARTESIAN_POINT('Ctrl Pts',(-62.509702029772,281.942570063677,29.4449634672826));
#262=CARTESIAN_POINT('Ctrl Pts',(-125.019404059544,336.467202941262,21.7572954806474));
#263=CARTESIAN_POINT('Ctrl Pts',(-187.529106089316,390.992355288236,14.0695175947182));
#264=CARTESIAN_POINT('Ctrl Pts',(0.,212.669143960322,37.9113929858073));
#265=CARTESIAN_POINT('Ctrl Pts',(-62.5097020297719,270.144486579636,30.0678766148876));
#266=CARTESIAN_POINT('Ctrl Pts',(-125.019404059544,327.619076813005,22.2244220954634));
#267=CARTESIAN_POINT('Ctrl Pts',(-187.529106089316,385.094419432318,14.3809057245438));
#268=CARTESIAN_POINT('Ctrl Pts',(0.,199.699469437998,38.3835408887317));
#269=CARTESIAN_POINT('Ctrl Pts',(-62.509702029772,259.768994025123,30.4455816573671));
#270=CARTESIAN_POINT('Ctrl Pts',(-125.019404059544,319.83823302508,22.5076801414652));
#271=CARTESIAN_POINT('Ctrl Pts',(-187.529106089316,379.907757612205,14.5697209101006));
#272=CARTESIAN_POINT('Ctrl Pts',(0.,189.10224337857,38.6435278456897));
#273=CARTESIAN_POINT('Ctrl Pts',(-62.5097020297719,251.292007087931,30.6535854968363));
#274=CARTESIAN_POINT('Ctrl Pts',(-125.019404059544,313.480090499258,22.6636338266858));
#275=CARTESIAN_POINT('Ctrl Pts',(-187.529106089316,375.66985420862,14.6736914778324));
#276=CARTESIAN_POINT('Ctrl Pts',(0.,178.53875829708,38.8265008496336));
#277=CARTESIAN_POINT('Ctrl Pts',(-62.5097020297719,242.841238732707,30.7999424290395));
#278=CARTESIAN_POINT('Ctrl Pts',(-125.019404059544,307.142963617966,22.7734220579926));
#279=CARTESIAN_POINT('Ctrl Pts',(-187.529106089316,371.445444053593,14.7468636373984));
#280=CARTESIAN_POINT('Ctrl Pts',(0.,165.740949284213,38.9146457192241));
#281=CARTESIAN_POINT('Ctrl Pts',(-62.509702029772,232.603193663124,30.870463793272));
#282=CARTESIAN_POINT('Ctrl Pts',(-125.019404059544,299.465268050886,22.8262953014189));
#283=CARTESIAN_POINT('Ctrl Pts',(-187.529106089316,366.327512429796,14.7821133754668));
#284=CARTESIAN_POINT('Ctrl Pts',(0.,154.462194665093,38.8374444617915));
#285=CARTESIAN_POINT('Ctrl Pts',(-62.5097020297719,223.580688004535,30.8087081537657));
#286=CARTESIAN_POINT('Ctrl Pts',(-125.019404059544,292.698567740111,22.7799763710049));
#287=CARTESIAN_POINT('Ctrl Pts',(-187.529106089316,361.817061079554,14.7512400629791));
#288=CARTESIAN_POINT('Ctrl Pts',(0.,146.57358801302,38.6870416670815));
#289=CARTESIAN_POINT('Ctrl Pts',(-62.509702029772,217.269689664297,30.6883845729734));
#290=CARTESIAN_POINT('Ctrl Pts',(-125.019404059544,287.966251508214,22.6897500476422));
#291=CARTESIAN_POINT('Ctrl Pts',(-187.529106089316,358.662353159492,14.6910929535341));
#292=CARTESIAN_POINT('Ctrl Pts',(0.,139.31879656973,38.4776169873502));
#293=CARTESIAN_POINT('Ctrl Pts',(-62.5097020297719,211.46658921626,30.5208628392554));
#294=CARTESIAN_POINT('Ctrl Pts',(-125.019404059544,283.613319643191,22.5640967354433));
#295=CARTESIAN_POINT('Ctrl Pts',(-187.529106089316,355.761112289721,14.6073425873486));
#296=CARTESIAN_POINT('Ctrl Pts',(0.,131.132631908087,38.1038142452092));
#297=CARTESIAN_POINT('Ctrl Pts',(-62.509702029772,204.917672059456,30.2218299665381));
#298=CARTESIAN_POINT('Ctrl Pts',(-125.019404059544,278.702368728862,22.3398405849584));
#299=CARTESIAN_POINT('Ctrl Pts',(-187.529106089316,352.487408880231,14.4578563062874));
#300=CARTESIAN_POINT('Ctrl Pts',(0.,121.280683657202,37.4662139274735));
#301=CARTESIAN_POINT('Ctrl Pts',(-62.509702029772,197.036377570651,29.7117649163097));
#302=CARTESIAN_POINT('Ctrl Pts',(-125.019404059544,272.791853271822,21.9573245761227));
#303=CARTESIAN_POINT('Ctrl Pts',(-187.529106089316,348.547547185271,14.2028755649589));
#304=CARTESIAN_POINT('Ctrl Pts',(0.,110.786219105855,36.6556725165901));
#305=CARTESIAN_POINT('Ctrl Pts',(-62.5097020297719,188.640716591427,29.0633498739982));
#306=CARTESIAN_POINT('Ctrl Pts',(-125.019404059544,266.496241328193,21.4710571366076));
#307=CARTESIAN_POINT('Ctrl Pts',(-187.529106089316,344.350738813765,13.8787344940157));
#308=CARTESIAN_POINT('Ctrl Pts',(0.,100.243896635029,35.7079015992373));
#309=CARTESIAN_POINT('Ctrl Pts',(-62.509702029772,180.207303980484,28.3051586398425));
#310=CARTESIAN_POINT('Ctrl Pts',(-125.019404059544,260.171384386474,20.9024573613653));
#311=CARTESIAN_POINT('Ctrl Pts',(-187.529106089316,340.134791731929,13.4997144019705));
#312=CARTESIAN_POINT('Ctrl Pts',(0.,91.2424793973513,34.723092382224));
#313=CARTESIAN_POINT('Ctrl Pts',(-62.5097020297719,173.006681853519,27.517360439374));
#314=CARTESIAN_POINT('Ctrl Pts',(-125.019404059544,254.770860768064,20.3116143826393));
#315=CARTESIAN_POINT('Ctrl Pts',(-187.529106089316,336.535063224231,13.1058824397893));
#316=CARTESIAN_POINT('Ctrl Pts',(0.,83.3120039784072,33.6787985716294));
#317=CARTESIAN_POINT('Ctrl Pts',(-62.509702029772,166.662394252174,26.6819504968273));
#318=CARTESIAN_POINT('Ctrl Pts',(-125.019404059544,250.013221423288,19.685110255342));
#319=CARTESIAN_POINT('Ctrl Pts',(-187.529106089316,333.363611697056,12.68826218054));
#320=CARTESIAN_POINT('Ctrl Pts',(0.,76.273463365703,32.6244352880602));
#321=CARTESIAN_POINT('Ctrl Pts',(-62.5097020297719,161.032081072476,25.8385145131961));
#322=CARTESIAN_POINT('Ctrl Pts',(-125.019404059544,245.790233311255,19.0525358448305));
#323=CARTESIAN_POINT('Ctrl Pts',(-187.529106089316,330.548851018028,12.2666150699664));
#324=CARTESIAN_POINT('Ctrl Pts',(0.,68.9632692469076,31.4028486872952));
#325=CARTESIAN_POINT('Ctrl Pts',(-62.509702029772,155.183791943388,24.8612431610803));
#326=CARTESIAN_POINT('Ctrl Pts',(-125.019404059544,241.40493154175,18.3196997338231));
#327=CARTESIAN_POINT('Ctrl Pts',(-187.529106089316,327.625454238231,11.7780942076083));
#328=CARTESIAN_POINT('Ctrl Pts',(0.,61.6582273525363,30.0507058907854));
#329=CARTESIAN_POINT('Ctrl Pts',(-62.5097020297719,149.340122127617,23.7795748038871));
#330=CARTESIAN_POINT('Ctrl Pts',(-125.019404059544,237.022223093247,17.5084941137874));
#331=CARTESIAN_POINT('Ctrl Pts',(-187.529106089316,324.704117868328,11.2373630268892));
#332=CARTESIAN_POINT('Ctrl Pts',(0.,54.8072583846298,28.6358746936041));
#333=CARTESIAN_POINT('Ctrl Pts',(-62.509702029772,143.859537035789,22.6477621369735));
#334=CARTESIAN_POINT('Ctrl Pts',(-125.019404059543,232.912089725732,16.6596748812975));
#335=CARTESIAN_POINT('Ctrl Pts',(-187.529106089315,321.964368376892,10.6715623246669));
#336=CARTESIAN_POINT('Ctrl Pts',(0.,48.7991873994475,27.2329249841969));
#337=CARTESIAN_POINT('Ctrl Pts',(-62.5097020297719,139.05325561312,21.5254181938208));
#338=CARTESIAN_POINT('Ctrl Pts',(-125.019404059544,229.307631357788,15.8180199012947));
#339=CARTESIAN_POINT('Ctrl Pts',(-187.529106089315,319.561699571461,10.1105131109186));
#340=CARTESIAN_POINT('Ctrl Pts',(0.,43.7319780341347,25.9023613373971));
#341=CARTESIAN_POINT('Ctrl Pts',(-62.509702029772,134.999870269421,20.4610566600118));
#342=CARTESIAN_POINT('Ctrl Pts',(-125.019404059543,226.267395547325,15.0197162575978));
#343=CARTESIAN_POINT('Ctrl Pts',(-187.529106089315,317.535287782611,9.57841158021251));
#344=CARTESIAN_POINT('Ctrl Pts',(0.,40.0290173458486,24.8679332177685));
#345=CARTESIAN_POINT('Ctrl Pts',(-62.5097020297718,132.037589490509,19.6335741756338));
#346=CARTESIAN_POINT('Ctrl Pts',(-125.019404059543,224.04587625449,14.3990957205989));
#347=CARTESIAN_POINT('Ctrl Pts',(-187.529106089315,316.054448399151,9.16473667846424));
#348=CARTESIAN_POINT('Ctrl Pts',(0.,37.1323538358951,24.0468060516157));
#349=CARTESIAN_POINT('Ctrl Pts',(-62.5097020297721,129.720432314097,18.9766274543865));
#350=CARTESIAN_POINT('Ctrl Pts',(-125.019404059543,222.307974310717,13.9065408885943));
#351=CARTESIAN_POINT('Ctrl Pts',(-187.529106089315,314.896052788919,8.83636229136516));
#352=CARTESIAN_POINT('Ctrl Pts',(0.,34.2037007842685,23.1975909113518));
#353=CARTESIAN_POINT('Ctrl Pts',(-62.5097020297718,127.377547315494,18.2973480833834));
#354=CARTESIAN_POINT('Ctrl Pts',(-125.019404059543,220.551017810283,13.3969981586895));
#355=CARTESIAN_POINT('Ctrl Pts',(-187.529106089315,313.724864341508,8.4967553307211));
#356=CARTESIAN_POINT('Ctrl Pts',(0.,30.3524092681042,22.0098115364873));
#357=CARTESIAN_POINT('Ctrl Pts',(-62.509702029772,124.296647293153,17.3471125944951));
#358=CARTESIAN_POINT('Ctrl Pts',(-125.019404059543,218.240468417305,12.6844531519277));
#359=CARTESIAN_POINT('Ctrl Pts',(-187.529106089315,312.184706442353,8.02175420993553));
#360=CARTESIAN_POINT('Ctrl Pts',(0.,25.2398939589263,20.1494087086588));
#361=CARTESIAN_POINT('Ctrl Pts',(-62.5097020297719,120.206979610256,15.8589516719956));
#362=CARTESIAN_POINT('Ctrl Pts',(-125.019404059543,215.1730908444,11.5682233924301));
#363=CARTESIAN_POINT('Ctrl Pts',(-187.529106089315,310.140176495729,7.27776635576691));
#364=CARTESIAN_POINT('Ctrl Pts',(0.,19.8878635099142,17.8683778609051));
#365=CARTESIAN_POINT('Ctrl Pts',(-62.509702029772,115.925256926969,14.034005115373));
#366=CARTESIAN_POINT('Ctrl Pts',(-125.019404059543,211.962469384433,10.1999392162378));
#367=CARTESIAN_POINT('Ctrl Pts',(-187.529106089315,307.999862801488,6.36556647070574));
#368=CARTESIAN_POINT('Ctrl Pts',(0.,15.8710488178052,15.9879803698622));
#369=CARTESIAN_POINT('Ctrl Pts',(-62.5097020297719,112.712478091784,12.5300204086398));
#370=CARTESIAN_POINT('Ctrl Pts',(-125.019404059543,209.552081774721,9.07154257476638));
#371=CARTESIAN_POINT('Ctrl Pts',(-187.529106089315,306.3935110487,5.613582613544));
#372=CARTESIAN_POINT('Ctrl Pts',(0.,13.2325148060189,14.685701337252));
#373=CARTESIAN_POINT('Ctrl Pts',(-62.509702029772,110.600782128597,11.4876442770767));
#374=CARTESIAN_POINT('Ctrl Pts',(-125.019404059543,207.970075873108,8.29084935427465));
#375=CARTESIAN_POINT('Ctrl Pts',(-187.529106089315,305.338343195686,5.09279229409939));
#376=CARTESIAN_POINT('Ctrl Pts',(0.,10.945174746223,13.4861138560424));
#377=CARTESIAN_POINT('Ctrl Pts',(-62.5097020297719,108.772008192578,10.528555051044));
#378=CARTESIAN_POINT('Ctrl Pts',(-125.019404059543,206.59678676709,7.57062783557504));
#379=CARTESIAN_POINT('Ctrl Pts',(-187.529106089315,304.423620213445,4.61306903057673));
#380=CARTESIAN_POINT('Ctrl Pts',(0.,8.58553045706893,12.0494479995257));
#381=CARTESIAN_POINT('Ctrl Pts',(-62.5097020297719,106.883546073177,9.3789070353829));
#382=CARTESIAN_POINT('Ctrl Pts',(-125.019404059543,205.18196665773,6.70907746243205));
#383=CARTESIAN_POINT('Ctrl Pts',(-187.529106089315,303.479982273838,4.03853649828923));
#384=CARTESIAN_POINT('Ctrl Pts',(0.,5.30161400504555,9.3982355067301));
#385=CARTESIAN_POINT('Ctrl Pts',(-62.509702029772,104.256951806007,7.25795528249686));
#386=CARTESIAN_POINT('Ctrl Pts',(-125.019404059542,203.211383754357,5.11857865797259));
#387=CARTESIAN_POINT('Ctrl Pts',(-187.529106089314,302.166721555318,2.97829843373934));
#388=CARTESIAN_POINT('Ctrl Pts',(0.,1.58957052517841,5.32325243579364));
#389=CARTESIAN_POINT('Ctrl Pts',(-62.5097020297718,101.287497870964,3.99865255763388));
#390=CARTESIAN_POINT('Ctrl Pts',(-125.019404059542,200.984322555407,2.67328462535244));
#391=CARTESIAN_POINT('Ctrl Pts',(-187.529106089314,300.682249901192,1.34868474719267));
#392=CARTESIAN_POINT('Ctrl Pts',(0.,0.0122574447980715,1.69249507883208));
#393=CARTESIAN_POINT('Ctrl Pts',(-62.5097020297721,100.026001717591,1.09384965369416));
#394=CARTESIAN_POINT('Ctrl Pts',(-125.019404059542,200.037727306376,0.495365396419305));
#395=CARTESIAN_POINT('Ctrl Pts',(-187.529106089314,300.051471579169,-0.10328002871862));
#396=CARTESIAN_POINT('Ctrl Pts',(0.,-0.0273184736219734,-0.448561642872622));
#397=CARTESIAN_POINT('Ctrl Pts',(-62.5097020297719,99.9931314591505,-0.618905602185996));
#398=CARTESIAN_POINT('Ctrl Pts',(-125.019404059542,200.01519496511,-0.789159341164977));
#399=CARTESIAN_POINT('Ctrl Pts',(-187.529106089314,300.035644897882,-0.95950330047835));
#400=CARTESIAN_POINT('Ctrl Pts',(0.,0.0404021257729646,-1.11689335984646));
#401=CARTESIAN_POINT('Ctrl Pts',(-62.509702029772,100.048039017098,-1.153526613615));
#402=CARTESIAN_POINT('Ctrl Pts',(-125.019404059542,200.055089938853,-1.19014048542687));
#403=CARTESIAN_POINT('Ctrl Pts',(-187.529106089314,300.062726830178,-1.22677373919541));
#404=CARTESIAN_POINT('Ctrl Pts',(0.,0.103636398266251,-1.49413646618862));
#405=CARTESIAN_POINT('Ctrl Pts',(-62.5097020297719,100.098323425029,-1.45533803881927));
#406=CARTESIAN_POINT('Ctrl Pts',(-125.019404059542,200.093327622805,-1.41643427287268));
#407=CARTESIAN_POINT('Ctrl Pts',(-187.529106089314,300.088014649568,-1.37763584550333));
#408=CARTESIAN_POINT('Ctrl Pts',(0.,0.299895453867678,-2.42911776056501));
#409=CARTESIAN_POINT('Ctrl Pts',(-62.509702029772,100.255396313041,-2.20321764097031));
#410=CARTESIAN_POINT('Ctrl Pts',(-125.019404059542,200.210999133168,-1.97744139917159));
#411=CARTESIAN_POINT('Ctrl Pts',(-187.529106089314,300.166499992341,-1.75154127957688));
#412=CARTESIAN_POINT('Ctrl Pts',(0.,0.931355293325035,-3.94946664953436));
#413=CARTESIAN_POINT('Ctrl Pts',(-62.5097020297719,100.760701392029,-3.41963218574654));
#414=CARTESIAN_POINT('Ctrl Pts',(-125.019404059542,200.589679015575,-2.88937369443867));
#415=CARTESIAN_POINT('Ctrl Pts',(-187.529106089314,300.419025114279,-2.35953923065085));
#416=CARTESIAN_POINT('Ctrl Pts',(0.,2.15507232204488,-5.5308925034863));
#417=CARTESIAN_POINT('Ctrl Pts',(-62.5097020297719,101.739186306444,-4.68450645240201));
#418=CARTESIAN_POINT('Ctrl Pts',(-125.019404059543,201.324283964994,-3.83834833012504));
#419=CARTESIAN_POINT('Ctrl Pts',(-187.529106089314,300.908397949393,-2.99196227904075));
#420=CARTESIAN_POINT('Ctrl Pts',(0.,3.28419793212997,-6.65032080728513));
#421=CARTESIAN_POINT('Ctrl Pts',(-62.509702029772,102.643199617973,-5.58026867662094));
#422=CARTESIAN_POINT('Ctrl Pts',(-125.019404059542,202.000941341405,-4.50968146824786));
#423=CARTESIAN_POINT('Ctrl Pts',(-187.529106089314,301.359943027248,-3.43962933758366));
#424=CARTESIAN_POINT('Ctrl Pts',(0.,5.0776513364219,-8.18463925719107));
#425=CARTESIAN_POINT('Ctrl Pts',(-62.5097020297719,104.076648280368,-6.80727369403522));
#426=CARTESIAN_POINT('Ctrl Pts',(-125.019404059543,203.078160403692,-5.43057937507039));
#427=CARTESIAN_POINT('Ctrl Pts',(-187.529106089314,302.077157347637,-4.05321381191454));
#428=CARTESIAN_POINT('Ctrl Pts',(0.,7.78440053131437,-9.90875073114456));
#429=CARTESIAN_POINT('Ctrl Pts',(-62.509702029772,106.242650366546,-8.18683545115113));
#430=CARTESIAN_POINT('Ctrl Pts',(-125.019404059543,204.701355085135,-6.46461309863321));
#431=CARTESIAN_POINT('Ctrl Pts',(-187.529106089315,303.159604920366,-4.74269781863977));
#432=CARTESIAN_POINT('Ctrl Pts',(0.,10.7301784572255,-11.3538303414684));
#433=CARTESIAN_POINT('Ctrl Pts',(-62.5097020297719,108.599393269317,-9.34265353298083));
#434=CARTESIAN_POINT('Ctrl Pts',(-125.019404059543,206.468426910398,-7.33177187728499));
#435=CARTESIAN_POINT('Ctrl Pts',(-187.529106089315,304.33764172249,-5.32059506879744));
#436=CARTESIAN_POINT('Ctrl Pts',(0.,13.6661929880753,-12.4469776548703));
#437=CARTESIAN_POINT('Ctrl Pts',(-62.509702029772,110.947990341646,-10.2171479983767));
#438=CARTESIAN_POINT('Ctrl Pts',(-125.019404059543,208.229976722376,-7.98758183547313));
#439=CARTESIAN_POINT('Ctrl Pts',(-187.529106089315,305.511774075946,-5.75775217897953));
#440=CARTESIAN_POINT('Ctrl Pts',(0.,16.6432862391923,-13.4118023907066));
#441=CARTESIAN_POINT('Ctrl Pts',(-62.509702029772,113.328886126118,-10.9886835081212));
#442=CARTESIAN_POINT('Ctrl Pts',(-125.019404059543,210.016734204532,-8.56671109261964));
#443=CARTESIAN_POINT('Ctrl Pts',(-187.529106089315,306.702334091458,-6.14359221003424));
#444=CARTESIAN_POINT('Ctrl Pts',(0.,19.5273491684075,-14.2776555806151));
#445=CARTESIAN_POINT('Ctrl Pts',(-62.5097020297719,115.63679042054,-11.6816849171402));
#446=CARTESIAN_POINT('Ctrl Pts',(-125.019404059543,211.746249390873,-9.08582350435164));
#447=CARTESIAN_POINT('Ctrl Pts',(-187.529106089315,307.855690643006,-6.48985284087674));
#448=CARTESIAN_POINT('Ctrl Pts',(0.,23.1055479201085,-15.2572175730118));
#449=CARTESIAN_POINT('Ctrl Pts',(-62.509702029772,118.498937653695,-12.4650460971146));
#450=CARTESIAN_POINT('Ctrl Pts',(-125.019404059543,213.893247138509,-9.67375787783228));
#451=CARTESIAN_POINT('Ctrl Pts',(-187.529106089315,309.286636872095,-6.88158640193512));
#452=CARTESIAN_POINT('Ctrl Pts',(0.,27.1444803289501,-16.2126761240985));
#453=CARTESIAN_POINT('Ctrl Pts',(-62.5097020297719,121.729995392772,-13.2296128961247));
#454=CARTESIAN_POINT('Ctrl Pts',(-125.019404059543,216.316318587722,-10.2467440594254));
#455=CARTESIAN_POINT('Ctrl Pts',(-187.529106089315,310.901833651543,-7.26368083145165));
#456=CARTESIAN_POINT('Ctrl Pts',(0.,30.9530876946339,-16.9649596385611));
#457=CARTESIAN_POINT('Ctrl Pts',(-62.509702029772,124.777040211568,-13.8312000879054));
#458=CARTESIAN_POINT('Ctrl Pts',(-125.019404059543,218.600969349152,-10.6982837205926));
#459=CARTESIAN_POINT('Ctrl Pts',(-187.529106089315,312.424921866086,-7.56452416993695));
#460=CARTESIAN_POINT('Ctrl Pts',(0.,35.6678981684527,-17.7229678673179));
#461=CARTESIAN_POINT('Ctrl Pts',(-62.5097020297719,128.548400807361,-14.4377010110081));
#462=CARTESIAN_POINT('Ctrl Pts',(-125.019404059543,221.429904281682,-11.1529237172528));
#463=CARTESIAN_POINT('Ctrl Pts',(-187.529106089315,314.31040692059,-7.86765686094302));
#464=CARTESIAN_POINT('Ctrl Pts',(0.,39.9651853909132,-18.2788607891032));
#465=CARTESIAN_POINT('Ctrl Pts',(-62.509702029772,131.986204180152,-14.8825557118147));
#466=CARTESIAN_POINT('Ctrl Pts',(-125.019404059543,224.007902773213,-11.4862673313647));
#467=CARTESIAN_POINT('Ctrl Pts',(-187.529106089315,316.028921562453,-8.08996225407625));
#468=CARTESIAN_POINT('Ctrl Pts',(0.,44.640241508876,-18.8400922789233));
#469=CARTESIAN_POINT('Ctrl Pts',(-62.5097020297719,135.725514575529,-15.3315561642406));
#470=CARTESIAN_POINT('Ctrl Pts',(-125.019404059543,226.813235510661,-11.8229386918746));
#471=CARTESIAN_POINT('Ctrl Pts',(-187.529106089315,317.898508577314,-8.3144025771919));
#472=CARTESIAN_POINT('Ctrl Pts',(0.,49.8315252824045,-19.4039757381321));
#473=CARTESIAN_POINT('Ctrl Pts',(-62.5097020297719,139.879385585656,-15.782705789249));
#474=CARTESIAN_POINT('Ctrl Pts',(-125.019404059543,229.926678269974,-12.161173389943));
#475=CARTESIAN_POINT('Ctrl Pts',(-187.529106089315,319.974538573225,-8.53990344105996));
#476=CARTESIAN_POINT('Ctrl Pts',(0.,57.677353918936,-20.1111583083367));
#477=CARTESIAN_POINT('Ctrl Pts',(-62.509702029772,146.155300842326,-16.3483635918141));
#478=CARTESIAN_POINT('Ctrl Pts',(-125.019404059543,234.634192348002,-12.5855053190435));
#479=CARTESIAN_POINT('Ctrl Pts',(-187.529106089315,323.112139271392,-8.82271060252085));
#480=CARTESIAN_POINT('Ctrl Pts',(0.,68.7316701365831,-20.8539555736203));
#481=CARTESIAN_POINT('Ctrl Pts',(-62.5097020297719,154.998654883402,-16.9426153752008));
#482=CARTESIAN_POINT('Ctrl Pts',(-125.019404059543,241.265851418303,-13.0311005232984));
#483=CARTESIAN_POINT('Ctrl Pts',(-187.529106089315,327.532836165122,-9.11976032487894));
#484=CARTESIAN_POINT('Ctrl Pts',(0.,77.9086391509952,-21.3003921444733));
#485=CARTESIAN_POINT('Ctrl Pts',(-62.509702029772,162.340333771932,-17.2997130035684));
#486=CARTESIAN_POINT('Ctrl Pts',(-125.019404059543,246.771074411775,-13.2989725132523));
#487=CARTESIAN_POINT('Ctrl Pts',(-187.529106089315,331.202769032712,-9.29829337234746));
#488=CARTESIAN_POINT('Ctrl Pts',(0.,84.8780735556387,-21.5407265066819));
#489=CARTESIAN_POINT('Ctrl Pts',(-62.5097020297719,167.915607184133,-17.4919998073824));
#490=CARTESIAN_POINT('Ctrl Pts',(-125.019404059543,250.952360036538,-13.4431314319114));
#491=CARTESIAN_POINT('Ctrl Pts',(-187.529106089315,333.989893665032,-9.39440473261199));
#492=CARTESIAN_POINT('Ctrl Pts',(0.,91.7021084223691,-21.7129961221119));
#493=CARTESIAN_POINT('Ctrl Pts',(-62.5097020297719,173.374582663253,-17.6297773385951));
#494=CARTESIAN_POINT('Ctrl Pts',(-125.019404059543,255.046397783742,-13.5465153171974));
#495=CARTESIAN_POINT('Ctrl Pts',(-187.529106089315,336.718872024626,-9.4632965336806));
#496=CARTESIAN_POINT('Ctrl Pts',(0.,100.157277069336,-21.8188825657098));
#497=CARTESIAN_POINT('Ctrl Pts',(-62.509702029772,180.138332499981,-17.7144917100963));
#498=CARTESIAN_POINT('Ctrl Pts',(-125.019404059543,260.119096542707,-13.6100321045244));
#499=CARTESIAN_POINT('Ctrl Pts',(-187.529106089315,340.100151973352,-9.50564124891087));
#500=CARTESIAN_POINT('Ctrl Pts',(0.,110.718569228052,-21.8427707323744));
#501=CARTESIAN_POINT('Ctrl Pts',(-62.509702029772,188.587304890627,-17.7335884946335));
#502=CARTESIAN_POINT('Ctrl Pts',(-125.019404059543,266.454949500943,-13.6243765283861));
#503=CARTESIAN_POINT('Ctrl Pts',(-187.529106089314,344.323685163517,-9.51519429064515));
#504=CARTESIAN_POINT('Ctrl Pts',(0.,121.228160339336,-21.7972232805951));
#505=CARTESIAN_POINT('Ctrl Pts',(-62.5097020297719,196.994485954464,-17.6971644926903));
#506=CARTESIAN_POINT('Ctrl Pts',(-125.019404059542,272.760217134989,-13.5970383401045));
#507=CARTESIAN_POINT('Ctrl Pts',(-187.529106089314,348.526542750117,-9.49697955219967));
#508=CARTESIAN_POINT('Ctrl Pts',(0.,131.099096526233,-21.6834885817907));
#509=CARTESIAN_POINT('Ctrl Pts',(-62.509702029772,204.890823530196,-17.6061684470588));
#510=CARTESIAN_POINT('Ctrl Pts',(-125.019404059542,278.682270846991,-13.5288164006012));
#511=CARTESIAN_POINT('Ctrl Pts',(-187.529106089314,352.473997850954,-9.45149626586928));
#512=CARTESIAN_POINT('Ctrl Pts',(0.,140.916567408819,-21.4887851879653));
#513=CARTESIAN_POINT('Ctrl Pts',(-62.5097020297719,212.744829510717,-17.4504089072819));
#514=CARTESIAN_POINT('Ctrl Pts',(-125.019404059541,284.571809707899,-13.4120093235964));
#515=CARTESIAN_POINT('Ctrl Pts',(-187.529106089313,356.400071809798,-9.37363304291306));
#516=CARTESIAN_POINT('Ctrl Pts',(0.,150.283594594162,-21.2462679925788));
#517=CARTESIAN_POINT('Ctrl Pts',(-62.509702029772,220.237953365498,-17.2564003249618));
#518=CARTESIAN_POINT('Ctrl Pts',(-125.01940405954,290.191651472503,-13.2665164203023));
#519=CARTESIAN_POINT('Ctrl Pts',(-187.529106089312,360.146010243839,-9.27664875268535));
#520=CARTESIAN_POINT('Ctrl Pts',(0.,158.915043703133,-21.0017516173085));
#521=CARTESIAN_POINT('Ctrl Pts',(-62.509702029772,227.142057197939,-17.0608058060507));
#522=CARTESIAN_POINT('Ctrl Pts',(-125.01940405954,295.370772463889,-13.1198107879644));
#523=CARTESIAN_POINT('Ctrl Pts',(-187.529106089312,363.597785958695,-9.17886497670668));
#524=CARTESIAN_POINT('Ctrl Pts',(0.,165.909042333976,-20.7944517874721));
#525=CARTESIAN_POINT('Ctrl Pts',(-62.5097020297719,232.73756920481,-16.8949640059958));
#526=CARTESIAN_POINT('Ctrl Pts',(-125.019404059539,299.566207122761,-12.995452134048));
#527=CARTESIAN_POINT('Ctrl Pts',(-187.529106089311,366.394733993594,-9.09596435257169));
#528=CARTESIAN_POINT('Ctrl Pts',(0.,173.350769355781,-20.5648344767925));
#529=CARTESIAN_POINT('Ctrl Pts',(-62.509702029772,238.690406421891,-16.7112806369804));
#530=CARTESIAN_POINT('Ctrl Pts',(-125.019404059538,304.031094617576,-12.8576926545502));
#531=CARTESIAN_POINT('Ctrl Pts',(-187.52910608931,369.370731683686,-9.00413881473811));
#532=CARTESIAN_POINT('Ctrl Pts',(0.,183.69139350587,-20.2319672580022));
#533=CARTESIAN_POINT('Ctrl Pts',(-62.5097020297719,246.962825512945,-16.4449937779093));
#534=CARTESIAN_POINT('Ctrl Pts',(-125.019404059538,310.234586216229,-12.6579964103965));
#535=CARTESIAN_POINT('Ctrl Pts',(-187.529106089309,373.506018223304,-8.87102293030358));
#536=CARTESIAN_POINT('Ctrl Pts',(0.,197.031178506198,-19.7718189064006));
#537=CARTESIAN_POINT('Ctrl Pts',(-62.5097020297719,257.634185508672,-16.0768877810845));
#538=CARTESIAN_POINT('Ctrl Pts',(-125.019404059533,318.237682760239,-12.3819375729599));
#539=CARTESIAN_POINT('Ctrl Pts',(-187.529106089305,378.840689762713,-8.68700644764378));
#540=CARTESIAN_POINT('Ctrl Pts',(0.,212.598524528654,-19.1660019706394));
#541=CARTESIAN_POINT('Ctrl Pts',(-62.509702029772,270.087631629863,-15.5922516096557));
#542=CARTESIAN_POINT('Ctrl Pts',(-125.01940405953,327.577071135876,-12.0184864598009));
#543=CARTESIAN_POINT('Ctrl Pts',(-187.529106089302,385.066178237085,-8.44473609881717));
#544=CARTESIAN_POINT('Ctrl Pts',(0.,223.663580906107,-18.6755470516441));
#545=CARTESIAN_POINT('Ctrl Pts',(-62.5097020297719,278.939368740723,-15.1999001882368));
#546=CARTESIAN_POINT('Ctrl Pts',(-125.019404059524,334.21538235978,-11.7242466753453));
#547=CARTESIAN_POINT('Ctrl Pts',(-187.529106089296,389.491170194396,-8.24859981193802));
#548=CARTESIAN_POINT('Ctrl Pts',(0.,230.868758283383,-18.3325249697372));
#549=CARTESIAN_POINT('Ctrl Pts',(-62.509702029772,284.703291754684,-14.9254941621079));
#550=CARTESIAN_POINT('Ctrl Pts',(-125.019404059523,338.538036587487,-11.5184537357049));
#551=CARTESIAN_POINT('Ctrl Pts',(-187.529106089295,392.372570058788,-8.11142292807558));
#552=CARTESIAN_POINT('Ctrl Pts',(0.,234.445171965238,-18.1577149060764));
#553=CARTESIAN_POINT('Ctrl Pts',(-62.5097020297718,287.564310604426,-14.7856508921576));
#554=CARTESIAN_POINT('Ctrl Pts',(-125.019404059523,340.68366378701,-11.4135791982496));
#555=CARTESIAN_POINT('Ctrl Pts',(-187.529106089295,393.802802426198,-8.04151518433071));
#556=CARTESIAN_POINT('Ctrl Pts',(0.,237.409410519765,-18.0092287029625));
#557=CARTESIAN_POINT('Ctrl Pts',(-62.509702029772,289.93561740034,-14.6668667364341));
#558=CARTESIAN_POINT('Ctrl Pts',(-125.019404059522,342.462014879778,-11.3244964995422));
#559=CARTESIAN_POINT('Ctrl Pts',(-187.529106089294,394.988221760353,-7.98213453301374));
#560=CARTESIAN_POINT('Ctrl Pts',(0.,239.479361090556,-17.903780071449));
#561=CARTESIAN_POINT('Ctrl Pts',(-62.5097020297719,291.59150206629,-14.582511093894));
#562=CARTESIAN_POINT('Ctrl Pts',(-125.019404059522,343.703868218804,-11.2612338793947));
#563=CARTESIAN_POINT('Ctrl Pts',(-187.529106089294,395.816009194538,-7.93996490183967));
#564=CARTESIAN_POINT('Ctrl Pts',(0.,240.513469904227,-17.8506754084906));
#565=CARTESIAN_POINT('Ctrl Pts',(-62.509702029772,292.418771110647,-14.5400287833314));
#566=CARTESIAN_POINT('Ctrl Pts',(-125.019404059522,344.324255197224,-11.2293746079565));
#567=CARTESIAN_POINT('Ctrl Pts',(-187.529106089294,396.229556403643,-7.9187279827973));
#568=CARTESIAN_POINT('Ctrl Pts',(0.,241.104209563529,-17.8202205862061));
#569=CARTESIAN_POINT('Ctrl Pts',(-62.5097020297719,292.891324568098,-14.5156663386879));
#570=CARTESIAN_POINT('Ctrl Pts',(-125.019404059522,344.678682241605,-11.2111031379482));
#571=CARTESIAN_POINT('Ctrl Pts',(-187.529106089294,396.465797246175,-7.90654889042998));
#572=CARTESIAN_POINT('Ctrl Pts',(0.,246.124479487373,-17.5607373537235));
#573=CARTESIAN_POINT('Ctrl Pts',(-62.5097020297719,296.907637510487,-14.3080812692731));
#574=CARTESIAN_POINT('Ctrl Pts',(-125.019404059522,347.69027960724,-11.0554358500222));
#575=CARTESIAN_POINT('Ctrl Pts',(-187.529106089294,398.473437630355,-7.80277976557181));
#576=CARTESIAN_POINT('Ctrl Pts',(0.,255.706599232021,-17.0448726260069));
#577=CARTESIAN_POINT('Ctrl Pts',(-62.509702029772,304.572748682314,-13.8954126745589));
#578=CARTESIAN_POINT('Ctrl Pts',(-125.019404059529,353.439243604228,-10.7459418733087));
#579=CARTESIAN_POINT('Ctrl Pts',(-187.529106089301,402.30539305452,-7.59648192186071));
#580=CARTESIAN_POINT('Ctrl Pts',(0.,270.161978200693,-16.2260302437552));
#581=CARTESIAN_POINT('Ctrl Pts',(-62.5097020297719,316.136771996141,-13.2403585117902));
#582=CARTESIAN_POINT('Ctrl Pts',(-125.019404059534,362.111404479983,-10.2546929674835));
#583=CARTESIAN_POINT('Ctrl Pts',(-187.529106089306,408.086198275431,-7.26902123551845));
#584=CARTESIAN_POINT('Ctrl Pts',(0.,284.974320620346,-15.3575618059927));
#585=CARTESIAN_POINT('Ctrl Pts',(-62.509702029772,327.986095093804,-12.5456145443124));
#586=CARTESIAN_POINT('Ctrl Pts',(-125.019404059539,370.997981155887,-9.73366201079757));
#587=CARTESIAN_POINT('Ctrl Pts',(-187.529106089311,414.009755629345,-6.92171474911722));
#588=CARTESIAN_POINT('Ctrl Pts',(0.,294.992589283497,-14.7545160846421));
#589=CARTESIAN_POINT('Ctrl Pts',(-62.5097020297719,336.000433226344,-12.0631920218037));
#590=CARTESIAN_POINT('Ctrl Pts',(-125.019404059544,377.008286055374,-9.37187669078385));
#591=CARTESIAN_POINT('Ctrl Pts',(-187.529106089316,418.016129998221,-6.6805526279454));
#592=CARTESIAN_POINT('Ctrl Pts',(0.,300.,-14.4499980672299));
#593=CARTESIAN_POINT('Ctrl Pts',(-62.5097020297719,340.006209299054,-11.8195899726973));
#594=CARTESIAN_POINT('Ctrl Pts',(-125.019404059544,380.012418598108,-9.1891818781647));
#595=CARTESIAN_POINT('Ctrl Pts',(-187.529106089316,420.018627897162,-6.55877378363209));
#596=CARTESIAN_POINT('',(0.,300.,31.1499909888391));
#597=CARTESIAN_POINT('Ctrl Pts',(0.,300.,31.1499909888391));
#598=CARTESIAN_POINT('Ctrl Pts',(0.,299.734275726378,31.1772089656676));
#599=CARTESIAN_POINT('Ctrl Pts',(0.,297.948749078348,31.3596942793664));
#600=CARTESIAN_POINT('Ctrl Pts',(0.,294.643063508396,31.6925112071993));
#601=CARTESIAN_POINT('Ctrl Pts',(0.,289.820413265392,32.1646016287585));
#602=CARTESIAN_POINT('Ctrl Pts',(0.,283.49890517035,32.7588944287516));
#603=CARTESIAN_POINT('Ctrl Pts',(0.,275.98562312477,33.4324016327611));
#604=CARTESIAN_POINT('Ctrl Pts',(0.,268.550890454655,34.0705254987655));
#605=CARTESIAN_POINT('Ctrl Pts',(0.,261.205753636398,34.6764044689937));
#606=CARTESIAN_POINT('Ctrl Pts',(0.,253.947516904441,35.2525896956019));
#607=CARTESIAN_POINT('Ctrl Pts',(0.,246.756863160634,35.8002721684496));
#608=CARTESIAN_POINT('Ctrl Pts',(0.,239.592454573453,36.318257065039));
#609=CARTESIAN_POINT('Ctrl Pts',(0.,232.394337306507,36.8028440386581));
#610=CARTESIAN_POINT('Ctrl Pts',(0.,225.098088904635,37.248825216633));
#611=CARTESIAN_POINT('Ctrl Pts',(0.,217.646385821307,37.6502042995584));
#612=CARTESIAN_POINT('Ctrl Pts',(0.,210.001278031329,38.0010148198068));
#613=CARTESIAN_POINT('Ctrl Pts',(0.,202.156950355637,38.2961278960977));
#614=CARTESIAN_POINT('Ctrl Pts',(0.,194.150439154034,38.5319896716063));
#615=CARTESIAN_POINT('Ctrl Pts',(0.,186.077979695935,38.7075823568437));
#616=CARTESIAN_POINT('Ctrl Pts',(0.,178.07948877982,38.8240906792999));
#617=CARTESIAN_POINT('Ctrl Pts',(0.,170.311949863948,38.8841159639375));
#618=CARTESIAN_POINT('Ctrl Pts',(0.,162.958408546047,38.8910110510679));
#619=CARTESIAN_POINT('Ctrl Pts',(0.,157.479894796672,38.8572395748039));
#620=CARTESIAN_POINT('Ctrl Pts',(0.,153.630855018957,38.8112082887849));
#621=CARTESIAN_POINT('Ctrl Pts',(0.,151.184081778407,38.7716852008484));
#622=CARTESIAN_POINT('Ctrl Pts',(0.,150.,38.7499618304836));
#623=CARTESIAN_POINT('',(-50.,299.999999999999,28.8677845575081));
#624=CARTESIAN_POINT('Ctrl Pts',(-50.0000000000769,300.,28.8677845575038));
#625=CARTESIAN_POINT('Ctrl Pts',(-41.7825339267671,300.,29.3034788151982));
#626=CARTESIAN_POINT('Ctrl Pts',(-33.3249620231168,300.000000038562,29.7215335366533));
#627=CARTESIAN_POINT('Ctrl Pts',(-16.622281254795,300.000000038562,30.484166517386));
#628=CARTESIAN_POINT('Ctrl Pts',(-8.37516462103065,300.,30.8293465193695));
#629=CARTESIAN_POINT('Ctrl Pts',(0.,300.,31.1499909888391));
#630=CARTESIAN_POINT('',(-50.,300.,-14.2293947120716));
#631=CARTESIAN_POINT('Ctrl Pts',(-49.9999999999996,300.,-14.2293947120716));
#632=CARTESIAN_POINT('Ctrl Pts',(-68.2572421907201,300.,-14.1144526013877));
#633=CARTESIAN_POINT('Ctrl Pts',(-83.3832702808837,300.,-13.9822365232833));
#634=CARTESIAN_POINT('Ctrl Pts',(-101.305127996995,300.,-13.5965887515532));
#635=CARTESIAN_POINT('Ctrl Pts',(-105.225534372395,300.,-13.5122283014872));
#636=CARTESIAN_POINT('Ctrl Pts',(-109.279716788481,300.,-13.4153664795205));
#637=CARTESIAN_POINT('Ctrl Pts',(-113.529726835899,300.,-13.3040227054322));
#638=CARTESIAN_POINT('Ctrl Pts',(-115.389751742621,300.,-13.2552928928666));
#639=CARTESIAN_POINT('Ctrl Pts',(-117.287285698456,300.,-13.2037980859057));
#640=CARTESIAN_POINT('Ctrl Pts',(-119.227529423931,300.,-13.1493224671561));
#641=CARTESIAN_POINT('Ctrl Pts',(-120.530405425138,300.,-13.1127420234789));
#642=CARTESIAN_POINT('Ctrl Pts',(-121.838368824395,300.,-13.0751792996057));
#643=CARTESIAN_POINT('Ctrl Pts',(-123.061954461616,300.,-13.0393505003183));
#644=CARTESIAN_POINT('Ctrl Pts',(-130.938380076445,300.,-12.808714520399));
#645=CARTESIAN_POINT('Ctrl Pts',(-136.417255626925,300.,-12.6336693447298));
#646=CARTESIAN_POINT('Ctrl Pts',(-141.353373541279,300.,-12.4208505862464));
#647=CARTESIAN_POINT('Ctrl Pts',(-143.319588608213,300.,-12.3360780065155));
#648=CARTESIAN_POINT('Ctrl Pts',(-145.199603558938,300.,-12.2433254832338));
#649=CARTESIAN_POINT('Ctrl Pts',(-147.110668602396,300.,-12.1377613157328));
#650=CARTESIAN_POINT('Ctrl Pts',(-148.317727459461,300.,-12.0710853206865));
#651=CARTESIAN_POINT('Ctrl Pts',(-149.563212539323,300.,-11.9978580364038));
#652=CARTESIAN_POINT('Ctrl Pts',(-150.790972896238,300.,-11.9214775902822));
#653=CARTESIAN_POINT('Ctrl Pts',(-155.167698454472,300.,-11.6491962376498));
#654=CARTESIAN_POINT('Ctrl Pts',(-158.648692562784,300.,-11.3914944940981));
#655=CARTESIAN_POINT('Ctrl Pts',(-161.9267063955,300.,-11.0493935889726));
#656=CARTESIAN_POINT('Ctrl Pts',(-163.739986406114,300.,-10.8601556038591));
#657=CARTESIAN_POINT('Ctrl Pts',(-165.491179299997,300.,-10.6457517116905));
#658=CARTESIAN_POINT('Ctrl Pts',(-167.297921694174,300.,-10.391931403256));
#659=CARTESIAN_POINT('Ctrl Pts',(-168.57282530396,300.,-10.2128264968215));
#660=CARTESIAN_POINT('Ctrl Pts',(-169.900622512721,300.,-10.008177638165));
#661=CARTESIAN_POINT('Ctrl Pts',(-171.055507559821,300.,-9.81244056482467));
#662=CARTESIAN_POINT('Ctrl Pts',(-173.65483416553,300.,-9.37189058650878));
#663=CARTESIAN_POINT('Ctrl Pts',(-175.626034720499,300.,-8.92747770364269));
#664=CARTESIAN_POINT('Ctrl Pts',(-176.975749627916,300.,-8.59662047511494));
#665=CARTESIAN_POINT('Ctrl Pts',(-177.756798435525,300.,-8.4051610473421));
#666=CARTESIAN_POINT('Ctrl Pts',(-178.329054869104,300.,-8.2479937201804));
#667=CARTESIAN_POINT('Ctrl Pts',(-178.692313370294,300.,-8.14129586247011));
#668=CARTESIAN_POINT('Ctrl Pts',(-178.901063940132,300.,-8.07998074245362));
#669=CARTESIAN_POINT('Ctrl Pts',(-179.076949915411,300.,-8.02623111388711));
#670=CARTESIAN_POINT('Ctrl Pts',(-179.29939849726,300.,-7.95456574017319));
#671=CARTESIAN_POINT('Ctrl Pts',(-179.888425267644,300.,-7.76480133135539));
#672=CARTESIAN_POINT('Ctrl Pts',(-180.636417134915,300.,-7.49711047841039));
#673=CARTESIAN_POINT('Ctrl Pts',(-181.528755901918,300.,-7.10599738032458));
#674=CARTESIAN_POINT('Ctrl Pts',(-181.954175305539,300.,-6.91953557110041));
#675=CARTESIAN_POINT('Ctrl Pts',(-182.412700443212,300.,-6.70578659978437));
#676=CARTESIAN_POINT('Ctrl Pts',(-182.904110733535,300.,-6.45755885649036));
#677=CARTESIAN_POINT('Ctrl Pts',(-183.249695158063,300.,-6.28299262638174));
#678=CARTESIAN_POINT('Ctrl Pts',(-183.60517276322,300.,-6.09414935904513));
#679=CARTESIAN_POINT('Ctrl Pts',(-183.933501119483,300.,-5.90508272805725));
#680=CARTESIAN_POINT('Ctrl Pts',(-184.149548226875,300.,-5.78067282574386));
#681=CARTESIAN_POINT('Ctrl Pts',(-184.367882971571,300.,-5.65259052859273));
#682=CARTESIAN_POINT('Ctrl Pts',(-184.66336560463,300.,-5.45019531586334));
#683=CARTESIAN_POINT('Ctrl Pts',(-185.023037601416,300.,-5.20383264625779));
#684=CARTESIAN_POINT('Ctrl Pts',(-185.448652193134,300.,-4.86464187655853));
#685=CARTESIAN_POINT('Ctrl Pts',(-185.88109711972,300.,-4.41656114394456));
#686=CARTESIAN_POINT('Ctrl Pts',(-186.169613876763,300.,-4.11761255669215));
#687=CARTESIAN_POINT('Ctrl Pts',(-186.485803018296,300.,-3.75376309103641));
#688=CARTESIAN_POINT('Ctrl Pts',(-186.783981471583,300.,-3.27584250150101));
#689=CARTESIAN_POINT('Ctrl Pts',(-187.086722261777,300.,-2.79060939585193));
#690=CARTESIAN_POINT('Ctrl Pts',(-187.332290547407,300.,-2.21222500884397));
#691=CARTESIAN_POINT('Ctrl Pts',(-187.436903062845,300.,-1.62527863692362));
#692=CARTESIAN_POINT('Ctrl Pts',(-187.627747089383,300.,-0.554515654968752));
#693=CARTESIAN_POINT('Ctrl Pts',(-187.353478255434,300.,0.605079753264466));
#694=CARTESIAN_POINT('Ctrl Pts',(-186.920911681432,300.,1.57187997609247));
#695=CARTESIAN_POINT('Ctrl Pts',(-186.624660283576,300.,2.23401139048094));
#696=CARTESIAN_POINT('Ctrl Pts',(-186.26835816042,300.,2.80910185005376));
#697=CARTESIAN_POINT('Ctrl Pts',(-185.985241151512,300.,3.22053075227618));
#698=CARTESIAN_POINT('Ctrl Pts',(-185.651661915854,300.,3.70529194433765));
#699=CARTESIAN_POINT('Ctrl Pts',(-185.375585408547,300.,4.03527884730953));
#700=CARTESIAN_POINT('Ctrl Pts',(-185.131377461942,300.,4.30022895030933));
#701=CARTESIAN_POINT('Ctrl Pts',(-184.964128037562,300.,4.48168394730018));
#702=CARTESIAN_POINT('Ctrl Pts',(-184.822025632421,300.,4.62820176878755));
#703=CARTESIAN_POINT('Ctrl Pts',(-184.52989807622,300.,4.89227652341596));
#704=CARTESIAN_POINT('Ctrl Pts',(-184.28946655837,300.,5.10961957350903));
#705=CARTESIAN_POINT('Ctrl Pts',(-183.960987436832,300.,5.38893209642234));
#706=CARTESIAN_POINT('Ctrl Pts',(-183.492466182246,300.,5.76426374024539));
#707=CARTESIAN_POINT('Ctrl Pts',(-183.145907119532,300.,6.04189166302801));
#708=CARTESIAN_POINT('Ctrl Pts',(-182.788030584285,300.,6.31939597855262));
#709=CARTESIAN_POINT('Ctrl Pts',(-182.456709502124,300.,6.56926904333092));
#710=CARTESIAN_POINT('Ctrl Pts',(-180.840734955809,300.,7.7879917091405));
#711=CARTESIAN_POINT('Ctrl Pts',(-179.555846516775,300.,8.54885888102574));
#712=CARTESIAN_POINT('Ctrl Pts',(-178.66919192003,300.,9.02835327319879));
#713=CARTESIAN_POINT('Ctrl Pts',(-178.183523301007,300.,9.29099825370282));
#714=CARTESIAN_POINT('Ctrl Pts',(-177.851904583805,300.,9.45910999117028));
#715=CARTESIAN_POINT('Ctrl Pts',(-177.465254080147,300.,9.65465171271994));
#716=CARTESIAN_POINT('Ctrl Pts',(-177.123078017738,300.,9.82770126440451));
#717=CARTESIAN_POINT('Ctrl Pts',(-176.815675921088,300.,9.9809851078044));
#718=CARTESIAN_POINT('Ctrl Pts',(-176.531588119476,300.,10.1219075365746));
#719=CARTESIAN_POINT('Ctrl Pts',(-175.487589668743,300.,10.6397854478224));
#720=CARTESIAN_POINT('Ctrl Pts',(-174.475950178206,300.,11.1251925490613));
#721=CARTESIAN_POINT('Ctrl Pts',(-173.352811765665,300.,11.6128657263689));
#722=CARTESIAN_POINT('Ctrl Pts',(-172.745601063339,300.,11.876520115883));
#723=CARTESIAN_POINT('Ctrl Pts',(-172.097068254709,300.,12.1468689093866));
#724=CARTESIAN_POINT('Ctrl Pts',(-171.286171781865,300.,12.4666998384676));
#725=CARTESIAN_POINT('Ctrl Pts',(-169.373025905651,300.,13.2212760927102));
#726=CARTESIAN_POINT('Ctrl Pts',(-166.732179827908,300.,14.1834162539051));
#727=CARTESIAN_POINT('Ctrl Pts',(-163.317307296155,300.,15.2331992623995));
#728=CARTESIAN_POINT('Ctrl Pts',(-161.141065627844,300.,15.9022085752004));
#729=CARTESIAN_POINT('Ctrl Pts',(-158.645986179719,300.,16.5916747491917));
#730=CARTESIAN_POINT('Ctrl Pts',(-155.823832607718,300.,17.2793638003337));
#731=CARTESIAN_POINT('Ctrl Pts',(-154.13966874173,300.,17.689752895548));
#732=CARTESIAN_POINT('Ctrl Pts',(-152.303951077301,300.,18.1116929134924));
#733=CARTESIAN_POINT('Ctrl Pts',(-150.425692294567,300.,18.5252328981567));
#734=CARTESIAN_POINT('Ctrl Pts',(-148.624027672331,300.,18.9219089936442));
#735=CARTESIAN_POINT('Ctrl Pts',(-146.816988862333,300.,19.3033031608957));
#736=CARTESIAN_POINT('Ctrl Pts',(-145.146656578623,300.,19.6389584169714));
#737=CARTESIAN_POINT('Ctrl Pts',(-141.952108098446,300.,20.2809067278657));
#738=CARTESIAN_POINT('Ctrl Pts',(-139.059531866028,300.,20.7904321217223));
#739=CARTESIAN_POINT('Ctrl Pts',(-136.114238619533,300.,21.2521578627425));
#740=CARTESIAN_POINT('Ctrl Pts',(-133.998968518596,300.,21.5837630962708));
#741=CARTESIAN_POINT('Ctrl Pts',(-131.860505480853,300.,21.8933704696023));
#742=CARTESIAN_POINT('Ctrl Pts',(-129.494117169557,300.,22.2163789298783));
#743=CARTESIAN_POINT('Ctrl Pts',(-122.758321690965,300.,23.1358049242884));
#744=CARTESIAN_POINT('Ctrl Pts',(-114.558040621484,300.,24.1095587632251));
#745=CARTESIAN_POINT('Ctrl Pts',(-105.508773707971,300.,25.002182411979));
#746=CARTESIAN_POINT('Ctrl Pts',(-100.802916307492,300.,25.4663702454773));
#747=CARTESIAN_POINT('Ctrl Pts',(-95.8588306365854,300.,25.9055555708856));
#748=CARTESIAN_POINT('Ctrl Pts',(-90.8678195974607,300.,26.3011411721797));
#749=CARTESIAN_POINT('Ctrl Pts',(-78.0883897902083,300.,27.3140338275692));
#750=CARTESIAN_POINT('Ctrl Pts',(-64.6923973176423,300.,28.0887861307483));
#751=CARTESIAN_POINT('Ctrl Pts',(-49.9999999999996,300.,28.8677845575079));
#752=CARTESIAN_POINT('',(0.,300.,-14.4499980672299));
#753=CARTESIAN_POINT('Ctrl Pts',(0.,300.,-14.4499980672299));
#754=CARTESIAN_POINT('Ctrl Pts',(-8.3115930854654,300.,-14.4237386108849));
#755=CARTESIAN_POINT('Ctrl Pts',(-16.7391297650114,300.,-14.3936675635707));
#756=CARTESIAN_POINT('Ctrl Pts',(-33.1953436685738,300.,-14.3234424492031));
#757=CARTESIAN_POINT('Ctrl Pts',(-41.8148258662029,300.,-14.2809261088402));
#758=CARTESIAN_POINT('Ctrl Pts',(-50.0000000000769,300.,-14.2293947120709));
#759=CARTESIAN_POINT('Ctrl Pts',(0.,150.00000000001,-21.2499899899979));
#760=CARTESIAN_POINT('Ctrl Pts',(0.,150.98101584254,-21.2236320195393));
#761=CARTESIAN_POINT('Ctrl Pts',(0.,153.211565716714,-21.1628806303851));
#762=CARTESIAN_POINT('Ctrl Pts',(0.,156.815726961538,-21.0620377155352));
#763=CARTESIAN_POINT('Ctrl Pts',(0.,162.007564219589,-20.911715117286));
#764=CARTESIAN_POINT('Ctrl Pts',(0.,169.036919354015,-20.6998972153484));
#765=CARTESIAN_POINT('Ctrl Pts',(0.,176.748124532517,-20.4577962254357));
#766=CARTESIAN_POINT('Ctrl Pts',(0.,184.717260374328,-20.1961921287997));
#767=CARTESIAN_POINT('Ctrl Pts',(0.,192.7867239062,-19.9175672966837));
#768=CARTESIAN_POINT('Ctrl Pts',(0.,200.812290930656,-19.6241215341255));
#769=CARTESIAN_POINT('Ctrl Pts',(0.,208.688155052051,-19.3174381318484));
#770=CARTESIAN_POINT('Ctrl Pts',(0.,216.368248933143,-18.998203972422));
#771=CARTESIAN_POINT('Ctrl Pts',(0.,223.852005912232,-18.6664541899685));
#772=CARTESIAN_POINT('Ctrl Pts',(0.,231.172819096043,-18.3217770689651));
#773=CARTESIAN_POINT('Ctrl Pts',(0.,238.385624330746,-17.963531587522));
#774=CARTESIAN_POINT('Ctrl Pts',(0.,245.55454044935,-17.5910649118263));
#775=CARTESIAN_POINT('Ctrl Pts',(0.,252.741235455858,-17.2039173441718));
#776=CARTESIAN_POINT('Ctrl Pts',(0.,259.991159601418,-16.8020632899029));
#777=CARTESIAN_POINT('Ctrl Pts',(0.,267.327034612283,-16.3860301968679));
#778=CARTESIAN_POINT('Ctrl Pts',(0.,274.754419124006,-15.9568134332475));
#779=CARTESIAN_POINT('Ctrl Pts',(0.,282.264495033899,-15.5158395107906));
#780=CARTESIAN_POINT('Ctrl Pts',(0.,288.830611161762,-15.1248858383244));
#781=CARTESIAN_POINT('Ctrl Pts',(0.,293.902631503651,-14.8197642205413));
#782=CARTESIAN_POINT('Ctrl Pts',(0.,297.457553581256,-14.6045078915685));
#783=CARTESIAN_POINT('Ctrl Pts',(0.,299.490046900202,-14.4810100843612));
#784=CARTESIAN_POINT('Ctrl Pts',(0.,300.,-14.4499980672299));
#785=CARTESIAN_POINT('Origin',(0.,300.,8.52871194528705));
#786=CARTESIAN_POINT('',(0.,300.,8.52871194528705));
#787=CARTESIAN_POINT('Origin',(0.,209.980260459655,8.52871194528705));
#788=UNCERTAINTY_MEASURE_WITH_UNIT(LENGTH_MEASURE(0.01),#792,
'DISTANCE_ACCURACY_VALUE',
'Maximum model space distance between geometric entities at asserted c
onnectivities');
#789=UNCERTAINTY_MEASURE_WITH_UNIT(LENGTH_MEASURE(0.01),#792,
'DISTANCE_ACCURACY_VALUE',
'Maximum model space distance between geometric entities at asserted c
onnectivities');
#790=(
GEOMETRIC_REPRESENTATION_CONTEXT(3)
GLOBAL_UNCERTAINTY_ASSIGNED_CONTEXT((#788))
GLOBAL_UNIT_ASSIGNED_CONTEXT((#792,#794,#795))
REPRESENTATION_CONTEXT('','3D')
);
#791=(
GEOMETRIC_REPRESENTATION_CONTEXT(3)
GLOBAL_UNCERTAINTY_ASSIGNED_CONTEXT((#789))
GLOBAL_UNIT_ASSIGNED_CONTEXT((#792,#794,#795))
REPRESENTATION_CONTEXT('','3D')
);
#792=(
LENGTH_UNIT()
NAMED_UNIT(*)
SI_UNIT(.MILLI.,.METRE.)
);
#793=(
LENGTH_UNIT()
NAMED_UNIT(*)
SI_UNIT($,.METRE.)
);
#794=(
NAMED_UNIT(*)
PLANE_ANGLE_UNIT()
SI_UNIT($,.RADIAN.)
);
#795=(
NAMED_UNIT(*)
SI_UNIT($,.STERADIAN.)
SOLID_ANGLE_UNIT()
);
#796=SHAPE_DEFINITION_REPRESENTATION(#797,#798);
#797=PRODUCT_DEFINITION_SHAPE('',$,#800);
#798=SHAPE_REPRESENTATION('',(#117),#790);
#799=PRODUCT_DEFINITION_CONTEXT('part definition',#804,'design');
#800=PRODUCT_DEFINITION('MasterSections','MasterSections v6',#801,#799);
#801=PRODUCT_DEFINITION_FORMATION('',$,#806);
#802=PRODUCT_RELATED_PRODUCT_CATEGORY('MasterSections v6',
'MasterSections v6',(#806));
#803=APPLICATION_PROTOCOL_DEFINITION('international standard',
'automotive_design',2009,#804);
#804=APPLICATION_CONTEXT(
'Core Data for Automotive Mechanical Design Process');
#805=PRODUCT_CONTEXT('part definition',#804,'mechanical');
#806=PRODUCT('MasterSections','MasterSections v6',$,(#805));
#807=PRESENTATION_STYLE_ASSIGNMENT((#808));
#808=SURFACE_STYLE_USAGE(.BOTH.,#809);
#809=SURFACE_SIDE_STYLE('',(#810));
#810=SURFACE_STYLE_FILL_AREA(#811);
#811=FILL_AREA_STYLE('Steel - Satin',(#812));
#812=FILL_AREA_STYLE_COLOUR('Steel - Satin',#813);
#813=COLOUR_RGB('Steel - Satin',0.627450980392157,0.627450980392157,0.627450980392157);
ENDSEC;
END-ISO-10303-21;
